# xmcd CD database file
#
# Track frame offsets:
#	150
#	16720
#	50752
#	70799
#	95130
#	104069
#	121023
#	145457
#	159430
#	200742
#	225468
#	241286
#	260401
#	277678
#	291359
#	323708
#
# Disc length: 4582 seconds
#
# Revision: 0
# Processed by: cddbd v1.5PL3 Copyright (c) Steve Scherf et al.
# Submitted via: CDex 1.51
#
DISCID=e611e410
DTITLE=Maynard Ferguson - 3
DYEAR=2003
DGENRE=Jazz
TTITLE0=Come Blow Your Horn
TTITLE1=Conquistador
TTITLE2=Scream Machine
TTITLE3=Eli's Comin
TTITLE4=Let's Face the Music and Dance
TTITLE5=Take The 'A' Train
TTITLE6=Lush Life
TTITLE7=Maria
TTITLE8=Night Train
TTITLE9=Sunday Morning
TTITLE10=Give it One
TTITLE11=Night In Tunisia
TTITLE12=Over The Rainbow
TTITLE13=Say It With Trumpets
TTITLE14=Primal Scream 
TTITLE15=Trumpet Rhapsody
EXTD=YEAR: 2003
EXTT0=
EXTT1=
EXTT2=
EXTT3=
EXTT4=
EXTT5=
EXTT6=
EXTT7=
EXTT8=
EXTT9=
EXTT10=
EXTT11=
EXTT12=
EXTT13=
EXTT14=
EXTT15=
PLAYORDER=
